<?xml version="1.0" encoding="utf-8"?>
<!-- Generator: Adobe Illustrator 16.0.0, SVG Export Plug-In . SVG Version: 6.00 Build 0)  -->
<!DOCTYPE svg PUBLIC "-//W3C//DTD SVG 1.1//EN" "http://www.w3.org/Graphics/SVG/1.1/DTD/svg11.dtd">
<svg version="1.1" id="Layer_1" xmlns="http://www.w3.org/2000/svg" xmlns:xlink="http://www.w3.org/1999/xlink" x="0px" y="0px"
	 width="720px" height="720px" viewBox="0 0 720 720" enable-background="new 0 0 720 720" xml:space="preserve">
<rect display="none" fill="#D8D8D8" width="720" height="720"/>
<g>
	<polygon fill="#333333" points="641.559,522.559 360.001,685.115 78.442,522.559 78.442,197.442 360.001,34.885 641.559,197.442 	
		"/>
	<g>
		<polygon fill="#F8AF5C" points="360.001,65.917 487.342,139.438 360.001,212.958 		"/>
		<polygon fill="#F4E085" points="232.66,139.438 360.001,212.958 232.66,286.479 		"/>
		<polygon fill="#3A80C3" points="232.66,433.52 360.001,507.04 232.66,580.561 		"/>
		<polygon fill="#7A5FA9" points="360.001,507.042 487.342,580.563 360.001,654.082 		"/>
		<polygon fill="#F064A5" points="487.342,433.52 614.682,507.04 487.342,580.561 		"/>
		<polygon fill="#A8C973" points="105.319,212.958 232.66,286.479 105.319,360 		"/>
		<polygon fill="#5CBEEA" points="105.319,360 232.66,433.52 105.319,507.041 		"/>
		<polygon fill="#F16666" points="487.342,139.438 614.682,212.958 487.342,286.479 		"/>
		<polygon fill="#333333" points="232.66,286.478 360.001,359.999 232.66,433.52 		"/>
		<polygon fill="#333333" points="487.342,286.478 614.682,359.999 487.342,433.52 		"/>
		<polygon fill="#333333" points="360.001,213.396 487.342,286.917 360.001,360.437 		"/>
		<polygon fill="#333333" points="360.001,360.436 487.342,433.956 360.001,507.477 		"/>
		<polygon fill="#EFCB73" points="360.001,212.958 232.66,139.438 360.001,65.917 		"/>
		<polygon fill="#CCD372" points="232.66,286.479 105.319,212.958 232.66,139.438 		"/>
		<polygon fill="#7AB670" points="232.66,433.52 105.319,360 232.66,286.479 		"/>
		<polygon fill="#2FA5DD" points="232.66,580.563 105.319,507.042 232.66,433.521 		"/>
		<polygon fill="#816CB1" points="360.001,654.081 232.66,580.563 360.001,507.041 		"/>
		<polygon fill="#AB64A8" points="487.342,580.561 360.001,507.041 487.342,433.52 		"/>
		<polygon fill="#333333" points="360.001,359.999 232.66,286.479 360.001,212.958 		"/>
		<polygon fill="#333333" points="360.001,507.477 232.66,433.957 360.001,360.437 		"/>
		<polygon fill="#F2996B" points="487.342,286.479 360.001,212.958 487.342,139.438 		"/>
		<polygon fill="#333333" points="487.342,433.52 360.001,360 487.342,286.479 		"/>
		<polygon fill="#333333" points="614.682,360.436 487.342,286.917 614.682,213.397 		"/>
		<polygon fill="#333333" points="614.682,507.477 487.342,433.956 614.682,360.437 		"/>
	</g>
</g>
</svg>
