<?xml version="1.0" encoding="utf-8"?>
<!-- Generator: Adobe Illustrator 16.0.0, SVG Export Plug-In . SVG Version: 6.00 Build 0)  -->
<!DOCTYPE svg PUBLIC "-//W3C//DTD SVG 1.1//EN" "http://www.w3.org/Graphics/SVG/1.1/DTD/svg11.dtd">
<svg version="1.1" xmlns="http://www.w3.org/2000/svg" xmlns:xlink="http://www.w3.org/1999/xlink" x="0px" y="0px" width="1280px"
	 height="720px" viewBox="0 0 1280 720" enable-background="new 0 0 1280 720" xml:space="preserve">
<g id="Background" display="none">
</g>
<g id="Trace" display="none">
</g>
<g id="Layer_1">
	<path display="none" fill="#877C69" d="M778.5,130.943l-5,14.667c0,0-54,84.07-31,128.98s-43,104.02-43,104.02
		C563,335,535.828,489.915,535.828,489.915L475.406,462c0,0,40.744-217.34-35.316-231.42c-3.52-1.54-7.14-2.82-10.84-3.83
		c9.46-8.77,27.69-34.003,41.25-82.474c0,0,17.833-51.184,67.333-54.184C537.833,90.093,662.5,49.443,778.5,130.943z"/>
	<g>
		<g>
			<path fill="#D6D0B2" d="M505.614,239.477c-6.125,11.536-30.212,13.778-39.815,6.102c-3.376-2.702-5.895-7.661-6.915-11.813
				c5.535-0.683,11.782-2.118,16.611-4.928c8.389-4.874,5.058-14.008,1.343-20.839c-4.967-9.111-9.856-18.261-14.692-27.457
				c-1.075-2.049-2.188-4.084-3.262-6.133c0,0,40.167,16.119,48.742,48.097C509.068,227.886,508.201,234.596,505.614,239.477z"/>
			<path fill="#5E4F49" d="M907.537,238.372c0,0-11.13-9.595-10.746-31.471c0,0-1.151-42.602-16.887-56.034
				c0,0,19.189,32.239-9.979,93.646c0,0-36.844,77.143-39.148,89.808c0,0,3.072,12.665,1.92,18.039c0,0-1.734,3.292-4.245,9.142
				c-6.178,14.361-17.078,44.145-18.598,78.432c-0.123,2.641-0.185,5.303-0.185,7.99c0,0-8.443,17.654-34.925,3.07
				c0,0,38.763-66.396,29.168-108.229c0,0-8.443-29.552-21.492-45.672c0,0-4.605,23.027-88.656,8.444
				c-3.462-0.562-11.176,15.52-12.549,17.846c-5.767,9.741-12.659,17.985-20.572,26.152c-0.722,0.752-1.459,1.488-2.203,2.226
				c-5.402,5.358-11.253,10.362-17.417,14.792c-12.534,9.012-27.226,11.131-41.91,14.301c-0.683,0.145-1.351,0.307-2.003,0.482
				c-21.739,5.895-28.317,28.094-30.32,48.787c-1.458,15.068-14.423,44.82-34.204,32.4c-4.475-2.816-8.451-4.113-10.216-9.918
				c-2.641-8.695,2.28-17.262,6.056-24.785c1.973-3.938,3.47-7.867,5.027-11.957c2.158-5.682,8.291-9.074,11.791-13.918
				c4.207-5.818,6.616-12.711,6.87-19.896c0.399-11.443,1.013-23.402,3.101-34.678c0,0-26.336-8.005-40.606-18.398
				c4.852-12.198,10.869-23.942,17.678-35.01c7.162-11.636,13.095-22.436,15.574-36.076c4.836-26.605-6.333-53.11-22.812-73.481
				c-6.072-7.5-12.62-14.892-19.988-21.132c-8.221-6.955-17.716-12.059-27.925-14.407c9.542-6.042,24.01-19.551,35.479-49.041
				c5.28-13.449,14.584-29.2,26.896-37.198c6.609-4.298,14.154-4.613,21.361-7.146c40.544-14.238,86.96-14.215,127.911-2.01
				c14.539,4.336,28.792,10.984,41.826,18.721c12.41,5.71,24.854,11.344,37.334,16.894c23.712,10.532,47.407,21.17,71.455,30.919
				c5.45,2.21,10.991,4.183,16.487,6.279c13.196,5.042,24.402,10.37,34.25,20.855c9.963,10.601,19.098,23.473,23.005,37.643
				C918.146,202.917,915.804,221.531,907.537,238.372z"/>
			<path fill="#9E917A" d="M653.703,240.632c-4.184,0.839-8.405,1.493-12.569,2.132c-20.895,3.21-46.096,12.105-61.473,27.058
				c-13.309,12.942-18.87,30.809-21.565,48.716c-1.422,9.454-2.631,19.266-2.88,28.83c0,0-26.336-8.005-40.606-18.398
				c4.852-12.198,10.869-23.942,17.678-35.01c7.162-11.636,13.095-22.436,15.574-36.076c4.836-26.605-6.333-53.11-22.812-73.481
				c-6.072-7.5-12.62-14.892-19.988-21.132c-8.221-6.955-17.716-12.059-27.925-14.407c9.542-6.042,24.01-19.551,35.479-49.041
				c5.28-13.449,14.584-29.2,26.896-37.198c6.609-4.298,14.154-4.613,21.361-7.146c40.544-14.238,86.96-14.215,127.911-2.01
				c7.359,2.195,39.268,50.577,29.032,105.458c-5.239,28.103-19.142,64.717-47.604,76.847
				C664.938,238.021,659.355,239.498,653.703,240.632z"/>
			<path fill="#3A322C" d="M525.05,184.403c-6.072-7.5-12.62-14.892-19.988-21.132c-5.296-4.482-11.122-8.19-17.325-10.892
				c-2.701-1.183-5.48-2.165-8.32-2.94c-0.752-0.207-1.513-0.399-2.28-0.575c-5.949-1.375-12.15-1.812-18.482-1.136
				c-18.054,1.926-34.166,12.066-48.643,22.375c-3.047,2.172-6.209,4.429-9.372,6.786c-3.915,2.917-7.845,5.994-11.59,9.272
				c-9.372,8.198-17.608,17.654-21.692,28.991c-8.321,23.128,1.804,53.585,9.703,75.615c9.679,26.958,21.07,63.158,47.951,77.995
				c3.469,1.91,7.153,3.285,11.083,3.898c0.967,0.154,8.858-0.129,8.974,0.037c33.773,50.662,56.801,28.785,56.801,28.785
				c-0.529-8.887-0.161-17.77,0.868-26.604c1.827-15.705,6.003-31.141,11.874-45.909c4.852-12.198,10.869-23.942,17.678-35.01
				c7.162-11.636,13.095-22.436,15.574-36.076C552.698,231.279,541.529,204.774,525.05,184.403z M505.614,239.477
				c-6.125,11.536-30.212,13.778-39.815,6.102c-3.376-2.702-5.895-7.661-6.915-11.813c5.535-0.683,11.782-2.118,16.611-4.928
				c8.389-4.874,5.058-14.008,1.343-20.839c-4.967-9.111-9.856-18.261-14.692-27.457c-1.075-2.049-2.188-4.084-3.262-6.133
				c0,0,40.167,16.119,48.742,48.097C509.068,227.886,508.201,234.596,505.614,239.477z"/>
			<path fill="#D6D0B2" d="M400.639,176.888c-3.915,2.917-7.845,5.994-11.59,9.272c-3.055-5.357-5.795-14.807,1.136-27.234
				C390.185,158.926,393.785,169.043,400.639,176.888z"/>
			<path fill="#3A322C" d="M832.444,421.439c-0.529,1.49-1.766,2.955-2.44,4.43c-1.874,4.045-2.856,8.291-3.731,12.627
				c-0.138,0.684-11.391,1.189-12.681,1.252c-1.082,0.053-2.379,0.152-3.737,0.184c1.52-34.287,12.42-64.07,18.598-78.432
				c-0.222,14.416-0.337,28.893,1.367,43.207c0.375,3.154,0.852,6.303,1.573,9.402C831.929,416.436,833.297,419.063,832.444,421.439
				z"/>
			<path fill="#3A322C" d="M658.44,351.759c-1.397,3.554-2.756,7.124-4.169,10.663c-3.729,9.371-6.523,18.889-9.057,28.645
				c-2.709,10.432-6.103,20.879-6.341,31.74c-0.269,12.441,0.584,24.248-4.912,35.953c-0.806,1.713-1.597,4.975-2.947,6.324
				c-1.75,1.752-7.592,2.512-10.017,3.018c-2.794,0.576-5.611,0.807-8.466,0.723c-4.59-0.139-11.345-0.445-13.456-5.352
				c-3.908-9.111,5.058-16.885,8.197-24.576c3.408-8.352,5.319-16.758,5.258-25.814c-0.039-6.049-0.583-15.121-4.56-20.064
				c-3.309-4.107-7.123-7.891-10.861-11.684c0.652-0.176,1.32-0.338,2.003-0.482c14.684-3.17,29.376-5.289,41.91-14.301
				C647.188,362.121,653.038,357.117,658.44,351.759z"/>
		</g>
		<g>
			<rect x="247" y="499.809" fill="none" width="786" height="114.836"/>
			<path fill="#3A322C" d="M417.309,572.701c-0.491,5.262-1.661,9.844-3.511,13.744c-1.851,3.9-4.27,7.145-7.256,9.729
				c-2.987,2.588-6.51,4.516-10.566,5.785c-4.057,1.271-8.516,1.906-13.375,1.906c-5.35,0-10.198-1.037-14.545-3.109
				c-4.347-2.074-8.048-4.982-11.101-8.727c-3.054-3.746-5.417-8.236-7.088-13.477c-1.672-5.238-2.508-11.043-2.508-17.42v-14.578
				c0-6.33,0.836-12.127,2.508-17.387c1.672-5.262,4.034-9.764,7.088-13.51c3.053-3.744,6.754-6.654,11.101-8.727
				c4.347-2.074,9.195-3.109,14.545-3.109c4.859,0,9.317,0.646,13.375,1.939c4.057,1.293,7.579,3.221,10.566,5.783
				c2.986,2.564,5.405,5.785,7.256,9.664c1.85,3.879,3.02,8.426,3.511,13.643h-3.611c-1.026-8.961-4.146-15.771-9.362-20.43
				s-12.461-6.988-21.734-6.988c-4.726,0-9.028,0.926-12.907,2.775s-7.212,4.48-9.998,7.891c-2.787,3.41-4.938,7.512-6.454,12.305
				c-1.516,4.793-2.273,10.131-2.273,16.016v14.713c0,5.885,0.757,11.234,2.273,16.049c1.515,4.816,3.667,8.928,6.454,12.34
				c2.786,3.41,6.119,6.051,9.998,7.924s8.181,2.809,12.907,2.809c4.502,0,8.56-0.545,12.171-1.639
				c3.611-1.092,6.743-2.764,9.396-5.016c2.652-2.25,4.781-5.104,6.386-8.559s2.652-7.568,3.143-12.34H417.309z"/>
			<path fill="#3A322C" d="M484.718,602.527c-0.491-1.693-0.836-3.732-1.036-6.119c-0.201-2.385-0.301-4.758-0.301-7.121
				c-1.204,1.963-2.698,3.822-4.48,5.584c-1.784,1.762-3.857,3.311-6.219,4.646c-2.364,1.338-5.016,2.398-7.958,3.178
				s-6.219,1.17-9.831,1.17c-3.389,0-6.453-0.48-9.195-1.438c-2.742-0.959-5.082-2.307-7.021-4.047
				c-1.939-1.738-3.434-3.811-4.48-6.219c-1.048-2.406-1.572-5.059-1.572-7.957c0-3.211,0.758-6.176,2.274-8.895
				c1.515-2.719,3.711-5.049,6.587-6.988s6.387-3.455,10.533-4.549c4.146-1.092,8.827-1.637,14.043-1.637h17.32V551.57
				c0-6.063-1.906-10.768-5.718-14.111c-3.812-3.344-9.262-5.016-16.351-5.016c-3.3,0-6.353,0.447-9.162,1.338
				c-2.809,0.893-5.25,2.129-7.323,3.711c-2.073,1.584-3.701,3.457-4.882,5.617c-1.182,2.164-1.772,4.492-1.772,6.988l-3.611-0.133
				c0-2.809,0.657-5.494,1.973-8.059c1.314-2.563,3.165-4.814,5.551-6.754c2.384-1.939,5.216-3.479,8.493-4.615
				s6.855-1.705,10.733-1.705c3.745,0,7.189,0.48,10.332,1.438c3.143,0.961,5.852,2.387,8.125,4.281
				c2.273,1.895,4.046,4.279,5.316,7.154c1.271,2.877,1.906,6.209,1.906,9.998v36.246c0,1.293,0.044,2.619,0.134,3.979
				c0.089,1.361,0.211,2.654,0.368,3.879c0.156,1.227,0.345,2.375,0.568,3.445c0.223,1.068,0.49,1.961,0.803,2.674v0.602H484.718z
				 M454.892,600.32c3.478,0,6.698-0.4,9.664-1.203c2.964-0.803,5.639-1.961,8.025-3.477c2.384-1.516,4.48-3.334,6.286-5.451
				c1.805-2.117,3.31-4.514,4.514-7.189v-17.186h-17.12c-4.681,0-8.872,0.457-12.572,1.371c-3.701,0.914-6.844,2.195-9.429,3.844
				c-2.586,1.65-4.57,3.623-5.952,5.92c-1.383,2.297-2.073,4.805-2.073,7.523c0,2.184,0.457,4.234,1.371,6.152
				c0.913,1.916,2.195,3.6,3.845,5.049c1.648,1.449,3.611,2.586,5.885,3.41C449.609,599.91,452.127,600.32,454.892,600.32z"/>
			<path fill="#3A322C" d="M542.163,532.777c-0.714-0.088-1.461-0.178-2.24-0.268c-0.781-0.088-1.595-0.133-2.441-0.133
				c-3.344,0-6.353,0.58-9.028,1.738c-2.675,1.16-4.994,2.754-6.955,4.781c-1.962,2.029-3.578,4.426-4.849,7.189
				c-1.271,2.766-2.196,5.773-2.775,9.027v47.414h-3.611V530.17h3.611v15.047c1.961-5.037,4.903-9.027,8.827-11.971
				c3.922-2.941,8.849-4.414,14.779-4.414c1.114,0,2.095,0.068,2.942,0.201c0.846,0.135,1.56,0.313,2.14,0.535L542.163,532.777z"/>
			<path fill="#3A322C" d="M578.542,596.777l26.014-66.607h3.879l-28.154,72.357h-3.544l-28.087-72.357h3.879L578.542,596.777z"/>
			<path fill="#3A322C" d="M647.824,603.865c-4.414,0-8.538-0.893-12.372-2.676c-3.834-1.781-7.189-4.268-10.064-7.455
				s-5.139-6.977-6.788-11.369c-1.65-4.391-2.475-9.217-2.475-14.479v-2.941c0-5.262,0.803-10.109,2.408-14.545
				s3.778-8.248,6.52-11.436c2.742-3.188,5.952-5.674,9.63-7.457c3.678-1.783,7.612-2.676,11.803-2.676
				c4.013,0,7.701,0.748,11.067,2.24c3.366,1.494,6.264,3.602,8.694,6.32c2.429,2.721,4.323,5.975,5.684,9.764
				c1.359,3.789,2.04,7.98,2.04,12.572v4.213h-54.235v1.004v2.941c0,4.504,0.713,8.727,2.14,12.674
				c1.426,3.945,3.399,7.379,5.918,10.297c2.518,2.922,5.494,5.229,8.927,6.922c3.433,1.695,7.133,2.541,11.102,2.541
				c2.05,0,4.046-0.154,5.985-0.467s3.8-0.848,5.584-1.605c1.782-0.758,3.499-1.771,5.148-3.043s3.232-2.887,4.748-4.848
				l2.542,1.805c-1.204,1.738-2.587,3.322-4.146,4.748c-1.562,1.428-3.333,2.652-5.316,3.678c-1.984,1.027-4.18,1.83-6.587,2.408
				C653.374,603.574,650.722,603.865,647.824,603.865z M646.486,532.443c-3.656,0-7.011,0.715-10.064,2.141
				c-3.054,1.428-5.741,3.4-8.058,5.918c-2.319,2.52-4.203,5.473-5.651,8.861c-1.449,3.389-2.374,7.045-2.775,10.967h50.423v-0.869
				c0-3.611-0.568-7.055-1.705-10.332s-2.742-6.152-4.815-8.627c-2.072-2.475-4.58-4.436-7.522-5.885
				C653.374,533.17,650.098,532.443,646.486,532.443z"/>
			<path fill="#3A322C" d="M722.723,532.777c-0.714-0.088-1.461-0.178-2.24-0.268c-0.78-0.088-1.595-0.133-2.441-0.133
				c-3.344,0-6.353,0.58-9.027,1.738c-2.675,1.16-4.994,2.754-6.955,4.781c-1.963,2.029-3.578,4.426-4.849,7.189
				c-1.271,2.766-2.196,5.773-2.775,9.027v47.414h-3.611V530.17h3.611v15.047c1.962-5.037,4.904-9.027,8.827-11.971
				c3.923-2.941,8.85-4.414,14.779-4.414c1.114,0,2.096,0.068,2.942,0.201c0.847,0.135,1.561,0.313,2.141,0.535L722.723,532.777z"/>
			<path fill="#3A322C" d="M729.812,564.945c0-5.307,0.77-10.166,2.308-14.58c1.538-4.412,3.699-8.213,6.486-11.4
				c2.786-3.188,6.119-5.674,9.998-7.457s8.158-2.676,12.84-2.676c4.725,0,9.038,0.893,12.939,2.676s7.233,4.27,9.998,7.457
				c2.764,3.188,4.915,6.988,6.453,11.4c1.538,4.414,2.308,9.273,2.308,14.58v2.809c0,5.305-0.759,10.164-2.274,14.578
				s-3.667,8.215-6.453,11.402s-6.119,5.674-9.997,7.455c-3.879,1.783-8.159,2.676-12.84,2.676c-4.727,0-9.04-0.893-12.94-2.676
				c-3.901-1.781-7.245-4.268-10.031-7.455c-2.787-3.188-4.948-6.988-6.486-11.402s-2.308-9.273-2.308-14.578V564.945z
				 M733.423,567.754c0,4.324,0.636,8.449,1.906,12.371c1.271,3.924,3.109,7.379,5.517,10.365c2.407,2.988,5.35,5.361,8.827,7.123
				s7.445,2.641,11.904,2.641c4.413,0,8.348-0.879,11.803-2.641s6.375-4.135,8.761-7.123c2.385-2.986,4.213-6.441,5.483-10.365
				c1.271-3.922,1.906-8.047,1.906-12.371v-2.809c0-4.236-0.636-8.303-1.906-12.205c-1.271-3.9-3.109-7.355-5.517-10.365
				c-2.408-3.01-5.351-5.418-8.828-7.223c-3.477-1.807-7.423-2.709-11.836-2.709c-4.414,0-8.359,0.902-11.837,2.709
				c-3.478,1.805-6.409,4.213-8.794,7.223c-2.386,3.01-4.213,6.465-5.483,10.365c-1.271,3.902-1.906,7.969-1.906,12.205V567.754z"/>
			<path fill="#3A322C" d="M859.146,602.527v-11.703c-2.141,4.014-5.262,7.189-9.362,9.529c-4.103,2.342-9.296,3.512-15.582,3.512
				c-3.567,0-6.811-0.502-9.73-1.504c-2.92-1.004-5.416-2.609-7.489-4.816c-2.073-2.205-3.689-5.07-4.849-8.592
				c-1.16-3.521-1.739-7.803-1.739-12.84V530.17h3.611v46.076c0,4.414,0.502,8.148,1.505,11.201c1.003,3.055,2.396,5.529,4.18,7.424
				c1.782,1.895,3.9,3.266,6.354,4.113c2.451,0.846,5.126,1.27,8.024,1.27c4.013,0,7.49-0.512,10.433-1.537s5.417-2.408,7.423-4.146
				s3.588-3.768,4.748-6.086c1.159-2.318,1.983-4.793,2.475-7.424V530.17h3.678v72.357H859.146z"/>
			<path fill="#3A322C" d="M930.233,584.807c0-1.648-0.313-3.32-0.937-5.016c-0.625-1.693-1.762-3.332-3.41-4.916
				c-1.65-1.582-3.902-3.053-6.755-4.414c-2.854-1.359-6.51-2.529-10.967-3.51c-4.058-0.848-7.613-1.807-10.667-2.875
				c-3.054-1.07-5.606-2.375-7.656-3.912c-2.052-1.539-3.59-3.367-4.614-5.484c-1.026-2.117-1.538-4.648-1.538-7.59
				c0-2.541,0.557-4.916,1.671-7.123s2.709-4.135,4.782-5.785c2.073-1.648,4.603-2.951,7.59-3.912
				c2.986-0.957,6.375-1.438,10.165-1.438c4.057,0,7.679,0.502,10.867,1.506c3.187,1.002,5.896,2.406,8.125,4.213
				c2.229,1.805,3.934,3.979,5.116,6.52c1.181,2.541,1.771,5.35,1.771,8.426H930.1c0-2.229-0.491-4.367-1.472-6.42
				c-0.98-2.049-2.407-3.867-4.279-5.449c-1.873-1.582-4.191-2.842-6.955-3.779c-2.765-0.936-5.93-1.404-9.496-1.404
				c-3.656,0-6.788,0.436-9.396,1.305c-2.608,0.869-4.738,2.006-6.387,3.41c-1.65,1.404-2.865,2.965-3.645,4.682
				c-0.781,1.717-1.171,3.422-1.171,5.115c0,1.873,0.257,3.602,0.77,5.184c0.512,1.582,1.56,3.055,3.143,4.414
				c1.582,1.359,3.813,2.641,6.688,3.844c2.876,1.205,6.654,2.342,11.335,3.412c4.324,0.98,8.036,2.096,11.135,3.344
				s5.651,2.707,7.657,4.379s3.478,3.602,4.414,5.785c0.936,2.186,1.404,4.703,1.404,7.557c0,2.809-0.592,5.373-1.772,7.691
				c-1.182,2.318-2.876,4.313-5.082,5.984c-2.207,1.672-4.882,2.977-8.025,3.912c-3.143,0.936-6.653,1.404-10.532,1.404
				c-4.37,0-8.237-0.525-11.603-1.572c-3.367-1.047-6.197-2.473-8.493-4.279c-2.297-1.805-4.035-3.9-5.217-6.285
				s-1.771-4.916-1.771-7.592h3.611c0.223,3.121,1.08,5.719,2.574,7.791c1.493,2.074,3.344,3.723,5.551,4.949
				s4.658,2.096,7.355,2.607c2.697,0.514,5.361,0.77,7.992,0.77c3.566,0,6.709-0.445,9.429-1.338
				c2.719-0.891,4.993-2.072,6.821-3.543c1.828-1.473,3.21-3.133,4.146-4.982S930.233,586.678,930.233,584.807z"/>
		</g>
		<g>
			<rect x="247" y="634.66" fill="none" width="786" height="40.797"/>
			<path fill="#5E4F49" d="M395.981,653.447H385.59v12.818h-1.111v-29.959h9.548c1.426,0,2.743,0.189,3.951,0.566
				c1.207,0.377,2.246,0.932,3.117,1.666s1.55,1.637,2.037,2.705c0.487,1.07,0.73,2.305,0.73,3.705c0,1.07-0.175,2.064-0.524,2.982
				c-0.35,0.92-0.83,1.74-1.44,2.459c-0.611,0.721-1.324,1.318-2.14,1.791c-0.816,0.473-1.697,0.799-2.644,0.977l8.004,12.82v0.287
				h-1.173L395.981,653.447z M385.59,652.336h9.445c1.276,0,2.397-0.209,3.364-0.627c0.967-0.42,1.773-0.975,2.417-1.668
				c0.645-0.691,1.128-1.48,1.451-2.365s0.484-1.795,0.484-2.727c0-1.18-0.206-2.236-0.618-3.17
				c-0.411-0.932-0.998-1.721-1.759-2.365c-0.761-0.645-1.677-1.139-2.747-1.482c-1.07-0.342-2.271-0.514-3.601-0.514h-8.437
				V652.336z"/>
			<path fill="#5E4F49" d="M419.583,666.678c-1.358,0-2.627-0.275-3.807-0.822c-1.18-0.549-2.212-1.314-3.097-2.295
				s-1.581-2.146-2.089-3.498c-0.507-1.352-0.761-2.836-0.761-4.455v-0.906c0-1.617,0.247-3.109,0.741-4.475
				c0.494-1.365,1.163-2.537,2.006-3.518c0.844-0.982,1.832-1.746,2.963-2.295c1.132-0.549,2.342-0.824,3.632-0.824
				c1.235,0,2.37,0.23,3.406,0.689c1.035,0.461,1.927,1.109,2.675,1.945c0.748,0.836,1.331,1.838,1.749,3.004
				s0.627,2.455,0.627,3.869v1.295h-16.688v0.309v0.906c0,1.385,0.219,2.686,0.658,3.898c0.439,1.215,1.046,2.271,1.821,3.17
				c0.775,0.898,1.69,1.607,2.747,2.129c1.056,0.521,2.194,0.783,3.416,0.783c0.631,0,1.245-0.049,1.842-0.145
				s1.169-0.26,1.718-0.494c0.549-0.232,1.077-0.545,1.584-0.936c0.507-0.393,0.995-0.889,1.461-1.492l0.782,0.555
				c-0.371,0.535-0.796,1.023-1.276,1.461c-0.48,0.439-1.026,0.816-1.636,1.133c-0.611,0.314-1.286,0.563-2.027,0.74
				S420.475,666.678,419.583,666.678z M419.171,644.701c-1.125,0-2.157,0.221-3.097,0.658c-0.94,0.439-1.766,1.047-2.479,1.822
				s-1.293,1.684-1.739,2.727s-0.73,2.168-0.854,3.375h15.515v-0.268c0-1.111-0.175-2.172-0.525-3.18s-0.844-1.893-1.481-2.654
				c-0.638-0.762-1.41-1.365-2.315-1.811S420.283,644.701,419.171,644.701z"/>
			<path fill="#5E4F49" d="M446.538,660.813c0-0.506-0.096-1.021-0.288-1.543s-0.542-1.025-1.049-1.512
				c-0.508-0.486-1.201-0.939-2.078-1.357c-0.878-0.42-2.003-0.779-3.375-1.08c-1.249-0.262-2.343-0.557-3.282-0.887
				c-0.939-0.328-1.725-0.73-2.356-1.203s-1.104-1.035-1.42-1.688c-0.315-0.65-0.473-1.43-0.473-2.334
				c0-0.783,0.171-1.514,0.515-2.191c0.343-0.68,0.833-1.273,1.471-1.781c0.638-0.508,1.416-0.908,2.335-1.203
				c0.919-0.295,1.961-0.443,3.127-0.443c1.248,0,2.363,0.154,3.344,0.463c0.98,0.309,1.814,0.742,2.5,1.297
				c0.686,0.557,1.21,1.225,1.574,2.006c0.363,0.783,0.545,1.646,0.545,2.594h-1.132c0-0.686-0.151-1.344-0.453-1.977
				c-0.302-0.631-0.741-1.189-1.317-1.676s-1.29-0.875-2.14-1.162c-0.851-0.289-1.825-0.434-2.922-0.434
				c-1.125,0-2.088,0.135-2.891,0.402c-0.802,0.268-1.458,0.617-1.965,1.049c-0.508,0.432-0.882,0.912-1.122,1.441
				c-0.24,0.527-0.36,1.053-0.36,1.572c0,0.576,0.079,1.109,0.236,1.596s0.48,0.939,0.967,1.357c0.487,0.42,1.173,0.813,2.058,1.184
				s2.047,0.721,3.488,1.049c1.331,0.303,2.472,0.646,3.426,1.029c0.954,0.385,1.739,0.834,2.356,1.348
				c0.617,0.516,1.07,1.107,1.358,1.779c0.288,0.674,0.432,1.449,0.432,2.326c0,0.863-0.182,1.652-0.545,2.365
				c-0.364,0.715-0.885,1.328-1.564,1.842c-0.679,0.516-1.502,0.916-2.469,1.205c-0.967,0.287-2.048,0.432-3.241,0.432
				c-1.344,0-2.534-0.162-3.57-0.484c-1.036-0.322-1.907-0.76-2.613-1.316c-0.707-0.555-1.242-1.199-1.605-1.934
				c-0.364-0.734-0.545-1.514-0.545-2.336h1.111c0.068,0.961,0.333,1.76,0.792,2.396c0.459,0.639,1.029,1.146,1.708,1.523
				s1.433,0.645,2.263,0.803s1.649,0.236,2.459,0.236c1.098,0,2.064-0.137,2.901-0.412c0.836-0.273,1.536-0.637,2.099-1.09
				c0.562-0.453,0.987-0.963,1.275-1.533C446.394,661.963,446.538,661.389,446.538,660.813z"/>
			<path fill="#5E4F49" d="M470.798,655.34c0,1.701-0.189,3.248-0.566,4.641c-0.377,1.393-0.923,2.586-1.636,3.58
				c-0.713,0.994-1.588,1.762-2.624,2.305c-1.036,0.541-2.212,0.813-3.529,0.813c-0.906,0-1.746-0.096-2.521-0.289
				c-0.775-0.191-1.478-0.459-2.109-0.801c-0.631-0.344-1.197-0.752-1.698-1.225c-0.501-0.475-0.923-0.992-1.265-1.555v12.018
				h-1.111v-30.824h1.111v3.971c0.356-0.658,0.782-1.254,1.275-1.789c0.494-0.535,1.056-0.994,1.688-1.379
				c0.631-0.385,1.327-0.682,2.088-0.895s1.595-0.32,2.5-0.32c1.317,0,2.497,0.262,3.54,0.783c1.042,0.521,1.924,1.268,2.644,2.242
				s1.269,2.16,1.646,3.561c0.377,1.398,0.566,2.977,0.566,4.732V655.34z M469.667,654.908c0-1.482-0.147-2.848-0.442-4.096
				s-0.741-2.324-1.337-3.23c-0.597-0.904-1.352-1.611-2.264-2.119s-1.979-0.762-3.2-0.762c-1.18,0-2.198,0.172-3.055,0.516
				c-0.858,0.342-1.584,0.785-2.181,1.326c-0.597,0.543-1.084,1.146-1.461,1.811c-0.377,0.666-0.669,1.32-0.875,1.965v10.412
				c0.26,0.699,0.614,1.346,1.06,1.936c0.445,0.59,0.984,1.1,1.615,1.531c0.631,0.434,1.358,0.77,2.181,1.01
				c0.823,0.24,1.742,0.359,2.757,0.359c1.207,0,2.263-0.254,3.168-0.762c0.906-0.508,1.657-1.217,2.253-2.129
				s1.042-1.992,1.337-3.24s0.442-2.613,0.442-4.096V654.908z"/>
			<path fill="#5E4F49" d="M475.161,654.701c0-1.631,0.236-3.127,0.71-4.484c0.473-1.359,1.138-2.527,1.996-3.508
				c0.857-0.982,1.883-1.746,3.076-2.295s2.51-0.824,3.951-0.824c1.454,0,2.781,0.275,3.982,0.824
				c1.2,0.549,2.225,1.313,3.076,2.295c0.85,0.98,1.512,2.148,1.985,3.508c0.474,1.357,0.71,2.854,0.71,4.484v0.865
				c0,1.633-0.233,3.127-0.7,4.486c-0.466,1.357-1.128,2.527-1.985,3.508c-0.857,0.98-1.883,1.746-3.076,2.295
				c-1.193,0.547-2.511,0.822-3.951,0.822c-1.455,0-2.782-0.275-3.982-0.822c-1.2-0.549-2.229-1.314-3.086-2.295
				s-1.522-2.15-1.996-3.508c-0.474-1.359-0.71-2.854-0.71-4.486V654.701z M476.271,655.566c0,1.33,0.196,2.6,0.586,3.807
				c0.391,1.207,0.957,2.27,1.698,3.189s1.646,1.65,2.716,2.191c1.07,0.541,2.291,0.813,3.663,0.813
				c1.358,0,2.568-0.271,3.632-0.813c1.063-0.541,1.961-1.271,2.695-2.191s1.296-1.982,1.688-3.189
				c0.391-1.207,0.586-2.477,0.586-3.807v-0.865c0-1.303-0.196-2.555-0.586-3.754c-0.391-1.201-0.957-2.264-1.698-3.189
				s-1.646-1.668-2.716-2.223c-1.07-0.555-2.284-0.834-3.642-0.834c-1.358,0-2.572,0.279-3.642,0.834
				c-1.07,0.555-1.972,1.297-2.706,2.223c-0.734,0.926-1.296,1.988-1.688,3.189c-0.391,1.199-0.586,2.451-0.586,3.754V655.566z"/>
			<path fill="#5E4F49" d="M502.415,646.986c0.514-0.686,1.107-1.279,1.78-1.781c0.672-0.5,1.416-0.895,2.232-1.182
				c0.816-0.289,1.69-0.434,2.624-0.434c1.125,0,2.126,0.154,3.004,0.463c0.877,0.309,1.618,0.797,2.222,1.461
				c0.604,0.666,1.063,1.52,1.378,2.563s0.473,2.305,0.473,3.787v14.402h-1.111v-14.402c0-1.414-0.147-2.584-0.442-3.51
				c-0.295-0.926-0.71-1.658-1.245-2.201c-0.535-0.541-1.173-0.922-1.914-1.143c-0.741-0.219-1.55-0.328-2.428-0.328
				c-0.81,0-1.551,0.113-2.223,0.34s-1.279,0.531-1.821,0.914c-0.542,0.385-1.026,0.824-1.451,1.318
				c-0.425,0.494-0.792,1.016-1.101,1.563c-0.309,0.549-0.565,1.098-0.771,1.646c-0.206,0.549-0.364,1.064-0.473,1.543v14.26h-1.111
				v-22.264h1.111v5.186C501.478,648.406,501.9,647.672,502.415,646.986z"/>
			<path fill="#5E4F49" d="M536.829,660.813c0-0.506-0.096-1.021-0.288-1.543s-0.542-1.025-1.049-1.512
				c-0.508-0.486-1.201-0.939-2.078-1.357c-0.878-0.42-2.003-0.779-3.375-1.08c-1.249-0.262-2.343-0.557-3.282-0.887
				c-0.939-0.328-1.725-0.73-2.356-1.203s-1.104-1.035-1.42-1.688c-0.315-0.65-0.473-1.43-0.473-2.334
				c0-0.783,0.171-1.514,0.515-2.191c0.343-0.68,0.833-1.273,1.471-1.781c0.638-0.508,1.416-0.908,2.335-1.203
				c0.919-0.295,1.961-0.443,3.127-0.443c1.248,0,2.363,0.154,3.344,0.463c0.98,0.309,1.814,0.742,2.5,1.297
				c0.686,0.557,1.21,1.225,1.574,2.006c0.363,0.783,0.545,1.646,0.545,2.594h-1.132c0-0.686-0.151-1.344-0.453-1.977
				c-0.302-0.631-0.741-1.189-1.317-1.676s-1.29-0.875-2.14-1.162c-0.851-0.289-1.825-0.434-2.922-0.434
				c-1.125,0-2.088,0.135-2.891,0.402c-0.802,0.268-1.458,0.617-1.965,1.049c-0.508,0.432-0.882,0.912-1.122,1.441
				c-0.24,0.527-0.36,1.053-0.36,1.572c0,0.576,0.079,1.109,0.236,1.596s0.48,0.939,0.967,1.357c0.487,0.42,1.173,0.813,2.058,1.184
				s2.047,0.721,3.488,1.049c1.331,0.303,2.472,0.646,3.426,1.029c0.954,0.385,1.739,0.834,2.356,1.348
				c0.617,0.516,1.07,1.107,1.358,1.779c0.288,0.674,0.432,1.449,0.432,2.326c0,0.863-0.182,1.652-0.545,2.365
				c-0.364,0.715-0.885,1.328-1.564,1.842c-0.679,0.516-1.502,0.916-2.469,1.205c-0.967,0.287-2.048,0.432-3.241,0.432
				c-1.344,0-2.534-0.162-3.57-0.484c-1.036-0.322-1.907-0.76-2.613-1.316c-0.707-0.555-1.242-1.199-1.605-1.934
				c-0.364-0.734-0.545-1.514-0.545-2.336h1.111c0.068,0.961,0.333,1.76,0.792,2.396c0.459,0.639,1.029,1.146,1.708,1.523
				s1.433,0.645,2.263,0.803s1.649,0.236,2.459,0.236c1.098,0,2.064-0.137,2.901-0.412c0.836-0.273,1.536-0.637,2.099-1.09
				c0.562-0.453,0.987-0.963,1.275-1.533C536.685,661.963,536.829,661.389,536.829,660.813z"/>
			<path fill="#5E4F49" d="M543.763,637.047c0-0.314,0.11-0.586,0.329-0.813s0.487-0.34,0.803-0.34c0.315,0,0.586,0.113,0.813,0.34
				c0.227,0.227,0.34,0.498,0.34,0.813c0,0.316-0.113,0.584-0.34,0.803c-0.226,0.221-0.497,0.33-0.813,0.33
				c-0.316,0-0.583-0.109-0.803-0.33C543.873,637.631,543.763,637.363,543.763,637.047z M545.451,666.266h-1.111v-22.264h1.111
				V666.266z"/>
			<path fill="#5E4F49" d="M559.298,664.496l8.004-20.494h1.193l-8.663,22.264h-1.091l-8.642-22.264h1.193L559.298,664.496z"/>
			<path fill="#5E4F49" d="M580.616,666.678c-1.358,0-2.627-0.275-3.807-0.822c-1.18-0.549-2.212-1.314-3.097-2.295
				s-1.581-2.146-2.089-3.498c-0.507-1.352-0.761-2.836-0.761-4.455v-0.906c0-1.617,0.247-3.109,0.741-4.475
				c0.494-1.365,1.163-2.537,2.006-3.518c0.844-0.982,1.832-1.746,2.963-2.295c1.132-0.549,2.342-0.824,3.632-0.824
				c1.235,0,2.37,0.23,3.406,0.689c1.035,0.461,1.927,1.109,2.675,1.945c0.748,0.836,1.331,1.838,1.749,3.004
				s0.627,2.455,0.627,3.869v1.295h-16.688v0.309v0.906c0,1.385,0.219,2.686,0.658,3.898c0.439,1.215,1.046,2.271,1.821,3.17
				c0.775,0.898,1.69,1.607,2.747,2.129c1.056,0.521,2.194,0.783,3.416,0.783c0.631,0,1.245-0.049,1.842-0.145
				s1.169-0.26,1.718-0.494c0.549-0.232,1.077-0.545,1.584-0.936c0.507-0.393,0.995-0.889,1.461-1.492l0.782,0.555
				c-0.371,0.535-0.796,1.023-1.276,1.461c-0.48,0.439-1.026,0.816-1.636,1.133c-0.611,0.314-1.286,0.563-2.027,0.74
				S581.507,666.678,580.616,666.678z M580.204,644.701c-1.125,0-2.157,0.221-3.097,0.658c-0.94,0.439-1.766,1.047-2.479,1.822
				s-1.293,1.684-1.739,2.727s-0.73,2.168-0.854,3.375h15.515v-0.268c0-1.111-0.175-2.172-0.525-3.18s-0.844-1.893-1.481-2.654
				c-0.638-0.762-1.41-1.365-2.315-1.811S581.315,644.701,580.204,644.701z"/>
			<path fill="#5E4F49" d="M609.094,659.477l1.358,4.938l1.358-4.938l7.079-23.17h1.234l7.037,23.17l1.338,4.938l1.399-4.938
				l6.173-23.17h1.214l-8.066,29.959h-1.255l-7.428-24.98l-1.049-3.168l-1.008,3.168l-7.49,24.98h-1.255l-8.086-29.959h1.234
				L609.094,659.477z"/>
			<path fill="#5E4F49" d="M649.465,666.678c-1.357,0-2.627-0.275-3.807-0.822c-1.18-0.549-2.213-1.314-3.098-2.295
				c-0.884-0.98-1.58-2.146-2.088-3.498c-0.507-1.352-0.761-2.836-0.761-4.455v-0.906c0-1.617,0.247-3.109,0.741-4.475
				c0.494-1.365,1.163-2.537,2.007-3.518c0.844-0.982,1.83-1.746,2.963-2.295c1.131-0.549,2.342-0.824,3.631-0.824
				c1.234,0,2.371,0.23,3.406,0.689c1.035,0.461,1.928,1.109,2.674,1.945c0.748,0.836,1.332,1.838,1.75,3.004
				s0.627,2.455,0.627,3.869v1.295h-16.687v0.309v0.906c0,1.385,0.219,2.686,0.658,3.898c0.439,1.215,1.047,2.271,1.822,3.17
				c0.773,0.898,1.689,1.607,2.746,2.129s2.195,0.783,3.416,0.783c0.631,0,1.244-0.049,1.842-0.145
				c0.596-0.096,1.17-0.26,1.719-0.494c0.547-0.232,1.076-0.545,1.584-0.936c0.508-0.393,0.994-0.889,1.461-1.492l0.781,0.555
				c-0.369,0.535-0.795,1.023-1.275,1.461c-0.48,0.439-1.025,0.816-1.637,1.133c-0.609,0.314-1.285,0.563-2.025,0.74
				C651.172,666.588,650.355,666.678,649.465,666.678z M649.053,644.701c-1.125,0-2.156,0.221-3.096,0.658
				c-0.939,0.439-1.768,1.047-2.48,1.822s-1.293,1.684-1.738,2.727s-0.73,2.168-0.854,3.375h15.514v-0.268
				c0-1.111-0.174-2.172-0.523-3.18s-0.844-1.893-1.482-2.654c-0.637-0.762-1.408-1.365-2.314-1.811
				S650.164,644.701,649.053,644.701z"/>
			<path fill="#5E4F49" d="M679.712,655.34c0,1.701-0.188,3.248-0.565,4.641c-0.378,1.393-0.923,2.586-1.636,3.58
				c-0.714,0.994-1.588,1.762-2.624,2.305c-1.035,0.541-2.212,0.813-3.528,0.813c-0.919,0-1.767-0.1-2.541-0.299
				c-0.775-0.199-1.479-0.473-2.109-0.822s-1.193-0.766-1.688-1.246c-0.494-0.479-0.912-1-1.255-1.563v3.518h-1.111V634.66h1.111
				v13.396c0.356-0.672,0.778-1.283,1.266-1.832c0.486-0.549,1.046-1.02,1.677-1.41s1.33-0.691,2.099-0.904s1.605-0.32,2.511-0.32
				c1.316,0,2.496,0.262,3.539,0.783c1.042,0.521,1.924,1.268,2.644,2.242c0.721,0.975,1.269,2.16,1.646,3.561
				c0.377,1.398,0.565,2.977,0.565,4.732V655.34z M678.56,654.908c0-1.482-0.147-2.848-0.442-4.096s-0.74-2.324-1.337-3.23
				c-0.597-0.904-1.348-1.611-2.253-2.119s-1.969-0.762-3.189-0.762c-1.193,0-2.223,0.176-3.087,0.525s-1.595,0.803-2.191,1.357
				c-0.597,0.557-1.077,1.17-1.44,1.842s-0.648,1.338-0.854,1.996v10.207c0.26,0.699,0.61,1.35,1.049,1.953
				c0.439,0.605,0.971,1.129,1.595,1.574c0.624,0.447,1.352,0.793,2.182,1.039c0.83,0.248,1.759,0.371,2.788,0.371
				c1.207,0,2.264-0.254,3.169-0.762s1.652-1.217,2.242-2.129s1.032-1.992,1.327-3.24s0.442-2.613,0.442-4.096V654.908z"/>
			<path fill="#5E4F49" d="M712.882,651.533h-15.35v14.732h-1.111v-29.959h18.561v1.111h-17.449v12.963h15.35V651.533z"/>
			<path fill="#5E4F49" d="M729.241,644.805c-0.22-0.027-0.45-0.055-0.689-0.082c-0.24-0.027-0.491-0.041-0.751-0.041
				c-1.029,0-1.955,0.178-2.778,0.535c-0.823,0.355-1.536,0.846-2.14,1.471s-1.101,1.361-1.492,2.213
				c-0.391,0.85-0.676,1.775-0.854,2.777v14.588h-1.111v-22.264h1.111v4.631c0.604-1.551,1.509-2.779,2.716-3.684
				c1.207-0.906,2.723-1.359,4.548-1.359c0.343,0,0.645,0.021,0.905,0.063s0.479,0.096,0.658,0.164L729.241,644.805z"/>
			<path fill="#5E4F49" d="M747.08,666.266c-0.15-0.521-0.257-1.148-0.318-1.883c-0.062-0.732-0.093-1.463-0.093-2.191
				c-0.37,0.604-0.83,1.178-1.379,1.719c-0.549,0.543-1.187,1.018-1.913,1.43c-0.728,0.412-1.544,0.738-2.449,0.979
				c-0.905,0.238-1.913,0.359-3.024,0.359c-1.043,0-1.985-0.148-2.829-0.443s-1.564-0.709-2.161-1.244s-1.056-1.172-1.378-1.914
				c-0.323-0.74-0.484-1.557-0.484-2.447c0-0.988,0.233-1.9,0.7-2.738c0.466-0.836,1.142-1.553,2.026-2.15
				c0.885-0.596,1.966-1.063,3.241-1.398s2.716-0.504,4.321-0.504h5.329v-3.252c0-1.865-0.587-3.313-1.76-4.342
				c-1.173-1.027-2.85-1.543-5.03-1.543c-1.016,0-1.955,0.139-2.819,0.412c-0.864,0.275-1.615,0.656-2.253,1.143
				s-1.139,1.063-1.502,1.729c-0.364,0.664-0.546,1.381-0.546,2.15l-1.11-0.041c0-0.865,0.202-1.691,0.606-2.48
				s0.974-1.48,1.708-2.078c0.733-0.598,1.604-1.07,2.613-1.42c1.008-0.35,2.109-0.525,3.303-0.525c1.152,0,2.212,0.148,3.179,0.443
				s1.801,0.734,2.5,1.316c0.7,0.584,1.245,1.316,1.636,2.201c0.392,0.885,0.587,1.912,0.587,3.076v11.154
				c0,0.396,0.014,0.805,0.041,1.223c0.027,0.42,0.064,0.816,0.113,1.193c0.048,0.379,0.105,0.73,0.175,1.061
				c0.068,0.33,0.15,0.604,0.247,0.822v0.186H747.08z M737.903,665.588c1.07,0,2.061-0.125,2.974-0.371
				c0.912-0.246,1.734-0.604,2.469-1.07c0.733-0.467,1.379-1.025,1.935-1.678c0.556-0.65,1.019-1.389,1.389-2.211v-5.289h-5.268
				c-1.44,0-2.73,0.143-3.868,0.422c-1.139,0.281-2.106,0.676-2.901,1.184c-0.796,0.508-1.406,1.115-1.832,1.822
				c-0.425,0.705-0.638,1.477-0.638,2.314c0,0.672,0.141,1.303,0.422,1.893s0.676,1.107,1.184,1.553
				c0.507,0.447,1.111,0.797,1.811,1.051S737.053,665.588,737.903,665.588z"/>
			<path fill="#5E4F49" d="M770.867,666.266h-1.111v-14.814c0-1.33-0.151-2.432-0.453-3.303s-0.724-1.564-1.266-2.078
				s-1.187-0.875-1.934-1.08c-0.748-0.207-1.561-0.309-2.438-0.309c-1.234,0-2.312,0.254-3.23,0.762s-1.694,1.141-2.325,1.902
				s-1.132,1.578-1.502,2.449s-0.625,1.67-0.762,2.396v14.074h-1.132v-22.264h1.132v5.268c0.329-0.795,0.744-1.539,1.245-2.232
				s1.087-1.293,1.76-1.801c0.672-0.508,1.416-0.908,2.232-1.203c0.815-0.295,1.697-0.443,2.644-0.443
				c1.865,0,3.392,0.412,4.578,1.236c1.187,0.822,1.966,2.166,2.336,4.031c0.302-0.74,0.71-1.43,1.225-2.066
				c0.514-0.639,1.121-1.193,1.82-1.668c0.7-0.473,1.481-0.846,2.346-1.121c0.864-0.273,1.797-0.412,2.799-0.412
				c1.125,0,2.13,0.154,3.015,0.463s1.632,0.797,2.242,1.461c0.61,0.666,1.077,1.52,1.399,2.563s0.483,2.305,0.483,3.787v14.402
				h-1.11v-14.402c0-1.414-0.151-2.586-0.453-3.52c-0.302-0.932-0.724-1.67-1.266-2.211c-0.542-0.543-1.187-0.924-1.934-1.143
				c-0.748-0.219-1.561-0.322-2.438-0.309s-1.678,0.133-2.397,0.359s-1.368,0.525-1.944,0.895c-0.576,0.371-1.077,0.793-1.502,1.266
				c-0.426,0.475-0.786,0.957-1.08,1.451c-0.296,0.494-0.525,0.984-0.689,1.471c-0.165,0.488-0.261,0.93-0.288,1.328V666.266z"/>
			<path fill="#5E4F49" d="M800.724,666.678c-1.358,0-2.628-0.275-3.808-0.822c-1.18-0.549-2.212-1.314-3.097-2.295
				s-1.581-2.146-2.088-3.498c-0.508-1.352-0.762-2.836-0.762-4.455v-0.906c0-1.617,0.247-3.109,0.741-4.475
				c0.493-1.365,1.162-2.537,2.006-3.518c0.844-0.982,1.831-1.746,2.963-2.295s2.343-0.824,3.632-0.824
				c1.234,0,2.37,0.23,3.405,0.689c1.036,0.461,1.928,1.109,2.675,1.945c0.748,0.836,1.331,1.838,1.749,3.004
				c0.419,1.166,0.628,2.455,0.628,3.869v1.295h-16.688v0.309v0.906c0,1.385,0.219,2.686,0.658,3.898
				c0.439,1.215,1.046,2.271,1.821,3.17c0.774,0.898,1.69,1.607,2.747,2.129c1.056,0.521,2.194,0.783,3.416,0.783
				c0.63,0,1.244-0.049,1.841-0.145s1.17-0.26,1.719-0.494c0.548-0.232,1.076-0.545,1.584-0.936
				c0.508-0.393,0.994-0.889,1.461-1.492l0.782,0.555c-0.37,0.535-0.796,1.023-1.276,1.461c-0.479,0.439-1.025,0.816-1.636,1.133
				c-0.61,0.314-1.286,0.563-2.026,0.74C802.431,666.588,801.614,666.678,800.724,666.678z M800.312,644.701
				c-1.125,0-2.157,0.221-3.097,0.658c-0.939,0.439-1.767,1.047-2.479,1.822c-0.714,0.775-1.293,1.684-1.738,2.727
				c-0.446,1.043-0.73,2.168-0.854,3.375h15.515v-0.268c0-1.111-0.175-2.172-0.524-3.18s-0.844-1.893-1.481-2.654
				s-1.409-1.365-2.315-1.811C802.431,644.926,801.423,644.701,800.312,644.701z"/>
			<path fill="#5E4F49" d="M817.946,659.826l1.214,4.793l1.522-4.793l5-15.824h1.132l4.979,15.824l1.502,4.793l1.256-4.793
				l4.526-15.824h1.297l-6.482,22.264h-1.11l-5.494-16.729l-1.05-3.992l-1.132,3.992l-5.411,16.729h-1.111l-6.461-22.264h1.275
				L817.946,659.826z"/>
			<path fill="#5E4F49" d="M844.16,654.701c0-1.631,0.237-3.127,0.71-4.484c0.474-1.359,1.139-2.527,1.996-3.508
				c0.857-0.982,1.883-1.746,3.076-2.295s2.511-0.824,3.951-0.824c1.453,0,2.78,0.275,3.981,0.824
				c1.2,0.549,2.226,1.313,3.076,2.295c0.851,0.98,1.513,2.148,1.985,3.508c0.474,1.357,0.71,2.854,0.71,4.484v0.865
				c0,1.633-0.233,3.127-0.699,4.486c-0.467,1.357-1.129,2.527-1.986,3.508s-1.883,1.746-3.076,2.295
				c-1.193,0.547-2.51,0.822-3.95,0.822c-1.454,0-2.781-0.275-3.981-0.822c-1.201-0.549-2.229-1.314-3.087-2.295
				s-1.522-2.15-1.996-3.508c-0.473-1.359-0.71-2.854-0.71-4.486V654.701z M845.271,655.566c0,1.33,0.195,2.6,0.587,3.807
				c0.391,1.207,0.956,2.27,1.697,3.189s1.646,1.65,2.716,2.191c1.07,0.541,2.291,0.813,3.663,0.813
				c1.357,0,2.568-0.271,3.632-0.813c1.063-0.541,1.961-1.271,2.695-2.191c0.733-0.92,1.296-1.982,1.688-3.189
				c0.391-1.207,0.586-2.477,0.586-3.807v-0.865c0-1.303-0.195-2.555-0.586-3.754c-0.392-1.201-0.957-2.264-1.698-3.189
				c-0.74-0.926-1.646-1.668-2.716-2.223s-2.284-0.834-3.642-0.834c-1.358,0-2.572,0.279-3.643,0.834
				c-1.069,0.555-1.972,1.297-2.706,2.223c-0.733,0.926-1.296,1.988-1.687,3.189c-0.392,1.199-0.587,2.451-0.587,3.754V655.566z"/>
			<path fill="#5E4F49" d="M878.853,644.805c-0.22-0.027-0.45-0.055-0.689-0.082c-0.24-0.027-0.491-0.041-0.751-0.041
				c-1.029,0-1.955,0.178-2.778,0.535c-0.823,0.355-1.536,0.846-2.14,1.471s-1.101,1.361-1.492,2.213
				c-0.391,0.85-0.676,1.775-0.854,2.777v14.588h-1.111v-22.264h1.111v4.631c0.604-1.551,1.509-2.779,2.716-3.684
				c1.207-0.906,2.723-1.359,4.548-1.359c0.343,0,0.645,0.021,0.905,0.063s0.479,0.096,0.658,0.164L878.853,644.805z"/>
			<path fill="#5E4F49" d="M887.515,654.229l-0.041,0.041l-3.23,2.777v9.219h-1.111V634.66h1.111v21.174l2.613-2.469l10.124-9.363
				h1.584l-10.227,9.486l10.864,12.777h-1.44L887.515,654.229z"/>
		</g>
	</g>
</g>
</svg>
